<?xml version="1.0" encoding="utf-8"?>
<!-- Generator: Adobe Illustrator 21.1.0, SVG Export Plug-In . SVG Version: 6.00 Build 0)  -->
<svg version="1.1" id="Layer_1" xmlns="http://www.w3.org/2000/svg" xmlns:xlink="http://www.w3.org/1999/xlink" x="0px" y="0px"
	 viewBox="0 0 543.1 278.8" enable-background="new 0 0 543.1 278.8" xml:space="preserve">
<g>
	<polygon fill="#F6F8FA" points="208.2,96.8 151,197.3 145.4,188.4 131.2,169.7 204.9,95.7 	"/>
	<path fill="#F6F8FA" d="M110,93.5c-3.2-10.6,19.2,37.4,21.9,45.1c-4.2-1.8-9.8-4.4-8.8-3.7c4.7,3.4,14.6,16.4,21.1,33.7
		c-3.3-2-6.8-3.6-9-5.3c-1.4-1.1,8.2,43.4,11.4,45.9c-11.4,0.1-62.1,0.4-79.7,0c6.3-13,19.1-36.3,23.1-40.3
		c-2.3,0.2-4.4,0.3-7.6,1.1c2-7.6,18.9-30.8,18.8-36.1c-1.2,0.9-4.4,1.6-7.3,2.2C97.9,132.5,112.8,102.7,110,93.5z"/>
	<path fill="#F6F8FA" d="M75.9,126.8c0.6,3.4,6.4,25.2,10.2,30.9c-1.6-1.1-5.4-2.4-4.8-1.9c3.1,2.5,7.6,11.2,11.8,24
		c-2.2-1.4-2.9-1.4-4.3-2.6c-0.9-0.8,7.7,30.1,9.8,31.8c-11,0-47.2,0-54.2,0c1.5,0,9.4-8.7,13.7-18c-2.2,0.6-4.5,1.5-5.5,1.7
		c3.7-7.8,10.2-20.3,11.4-21.7c-0.9,0.6-6.3,5.5-7.3,6.7c3-6.6,11.5-17.8,12.7-23c-0.7,0.7-2.7,1.8-5.4,2.1
		C69.8,152,73.5,129.5,75.9,126.8z"/>
	<path fill="#F6F8FA" d="M357.3,29.3c3.6-15.1,24,57.8,27.4,69.1c-5.4-2.7-12.6-6.5-11.3-5.5c6,5.1,18.7,24.4,27,50
		c-4.3-2.9-8.7-5.4-11.5-7.9c-1.8-1.6,10.6,64.4,14.6,68c-14.6,0.1-79.6,0.6-102.1,0c8-19.2,24.5-53.9,29.6-59.8
		c-3,0.3-5.7,0.4-9.7,1.7c2.5-11.2,25.4-54.4,25.3-62.3c-1.5,1.3-5.6,2.4-9.4,3.2C342.4,80.6,354,42.9,357.3,29.3z"/>
	<path fill="#F6F8FA" d="M407.4,16.1c-1.2,8.7-9.8,47.3-16.6,62.2c2.9-2.9,8.1-6.3,6.9-4.9c-5.5,6.5-13.7,29.2-21.2,62.2
		c3.9-3.7,8-6.9,10.5-10.1c1.6-2.1-16.7,81.3-20.4,85.9c19.7,0,84.9,0,97.6,0c-2.6,0-14.7-17.8-22.4-41.8c4,1.5,10.6,7.9,12.4,8.5
		c-6.6-20.2-23.2-61.7-25.3-65.2c1.6,1.5,9.9,5.2,12.4,9.2c-5.4-17.3-20-37.8-22.2-51.6c1.3,1.8,4.8,4.6,9.7,5.6
		C418.5,63.4,411.8,23,407.4,16.1z"/>
	<path fill="#F6F8FA" d="M313.2,73.6c0.9,5.6,9.3,42.4,14.7,52c-2.3-1.9-7.9-4.1-6.9-3.2c4.4,4.2,11,18.9,17.1,40.3
		c-3.1-2.4-4.2-2.4-6.3-4.5c-1.3-1.3,11.2,50.5,14.2,53.5c-15.9,0-68.3,0-78.5,0c2.1,0,10.5-13.7,16.7-29.3c-3.2,1-3.3,1.5-4.8,1.9
		c5.3-13.1,14.8-34.2,16.5-36.4c-1.4,1.1-9.1,9.3-10.6,11.3c4.3-11.2,17-27.8,18.8-36.7c-1,1.2-6,5.8-10,6.4
		C302.6,120.8,309.8,78.1,313.2,73.6z"/>
	<path fill="#F6F8FA" d="M457.2,82.1c0.3,6.9-9.2,30.1-11.3,39.8c3.2-2.3,7.3-5.6,6.6-4.7c-3.5,4.3-10.9,20.8-15.7,42.7
		c2.5-2.5,5.1-4.6,6.7-6.7c1-1.4-6.1,55-8.5,58.1c8.5,0.1,46.2,0.5,59.2,0c-4.7-16.4-14.2-46-17.2-51.1c1.7,0.3,3.3,0.4,5.6,1.4
		c-1.5-9.6-14-39-14-45.7c0.9,1.1,3.2,2,5.4,2.7C471.2,114.2,456.7,69.8,457.2,82.1z"/>
	<polygon fill="#F6F8FA" points="223.3,99.5 228,96.8 288,211.8 237,211.8 	"/>
	<polygon fill="#F6F8FA" points="235.7,91.1 239.6,85.4 329,130.1 300.2,152.1 	"/>
	<polygon fill="#F6F8FA" points="213.8,101.3 189.2,211.8 223.6,211.8 220.9,101.3 	"/>
	<polygon fill="#F6F8FA" points="108.1,144.3 127.5,162.2 206.1,94 199,90.8 	"/>
	<polygon fill="#F6F8FA" points="241.5,84.3 243.7,78.5 378.3,93.8 379.8,141.7 	"/>
	<polygon fill="#F6F8FA" points="191.8,70.2 192.2,76.6 118.2,84.5 127,65.4 	"/>
	<polygon fill="#F6F8FA" points="144.1,44.7 160.8,28 196.9,58.2 192.8,64.1 	"/>
	<polygon fill="#F6F8FA" points="163,24.7 179.5,16.8 204.5,52.3 198.9,56.1 	"/>
	<path fill="#F6F8FA" d="M200.8,8.2c0,0,14.8-4.8,16.8-5.2l0.7,47.5l-5-0.4L200.8,8.2z"/>
	<polygon fill="#F6F8FA" points="221.7,2.6 245.4,0 227.4,54.1 220.2,53.3 	"/>
	<polygon fill="#F6F8FA" points="281,5.6 315.9,18.7 239.3,61.5 234.8,57.7 	"/>
	<polygon fill="#F6F8FA" points="325.2,20.2 355.5,47.1 242.6,70.3 240.7,62.8 	"/>
	<polygon fill="#F6F8FA" points="193.3,79.6 117.4,88.2 111.1,114.4 199,85.7 	"/>
	<circle fill="#FFFFFF" cx="217.1" cy="75.1" r="27.6"/>
	<g>
		<path fill="#E8EAED" d="M353.1,143.1c0.3,0.3,0.7,0.5,1.1,0.7"/>
	</g>
	<path fill="#E8EAED" d="M36.4,211.7c49.9,0,427,0,439.9,0c-56.4-42.2-162.4-14.8-191.6-3.8c-22.2-19.3-63.7-33.5-99.6-13.8
		c-21.7-31.4-61.3-3.4-64.7,4.9c-2.9-1.4-10.4-2-18.6-2c-3.1,0-6.2,0.1-9.3,0.3c-3.1,0.2-6.2,0.4-8.9,0.8c3.1-3.1-6.6-3.9-6.9,0.5
		c-4.5-2-8.5,1.7-4.6,2.4c-3.9,1.2-7.4,4.1-9,5.6C55.2,206.1,44.4,206.5,36.4,211.7z"/>
	<rect y="211.2" fill="#D9DDE2" width="543.1" height="1.1"/>
	<ellipse fill="#E8EAED" cx="283.3" cy="264.1" rx="115.1" ry="14.7"/>
	<ellipse fill="#E8EAED" cx="381.9" cy="257.4" rx="123.7" ry="8"/>
	<path fill="#E8EAED" d="M154.6,199.2c-10.6-14.4-14.4-16.4-15.1-22.8c31.2-5.4,5.8-32.3,0.9-12.5c3.1-19.2-12.6-3.2-6.9,3.6
		c-9.1-6.3-16.8,4.1,3.3,8.1c1.4,1,3.2,7.1,3.3,9c-3.9-1.9-13.7-7-14.7-7.4c-8.9-26.7-38-22.4-12.9-1.8c-32.4,2.4,0.2,17.2,13.1,6.9
		c13.1-0.2,16.3,8.5,14.9,19.6C142,202.7,154.6,199.2,154.6,199.2z"/>
	<path fill="#E8EAED" d="M88.9,209.4c-31.2-5.4-5.8-32.3-0.9-12.5c-3.1-19.2,15.6-4.7,9.9,2c11.9-12.2,13.7,5.6-6.4,9.6
		C90.1,209.7,88.9,210.9,88.9,209.4z"/>
	<path fill="#E8EAED" d="M158.5,195.4c17.8,5.1,29.9-15.3,10.3-15.1c5.5-12.6-10.6-6.5-10.5,2c-1.1-15.7-10.7,1.9-0.9,11.6
		C157.7,195.3,157.8,196.9,158.5,195.4z"/>
	<ellipse fill="#E8EAED" cx="101.3" cy="249.9" rx="17.8" ry="4.2"/>
	
		<ellipse transform="matrix(1.768993e-03 -1 1 1.768993e-03 -122.8942 386.2824)" fill="#E8EAED" cx="132" cy="254.7" rx="5.1" ry="21"/>
	<path fill="#B2BBC4" d="M94.3,248.3c1.4,2.4,14,2.9,14.8-0.6c0.5-2.5,1.2-9.2,1.6-11.5c-3,1.5-18.6-0.1-19.4-0.9
		C92.3,239,93.8,247.4,94.3,248.3z"/>
	<path fill="#D2D5DA" d="M114.7,228.9c0.9,1.3-0.4,5.8-1,8.3c-0.9,3.8-22.4,4.4-24.4-0.5c-1.8-4.7-3.8-6.9-1.9-8.7
		C91.6,224.1,112,225,114.7,228.9z"/>
	<path fill="#F3F3F3" d="M92.3,230c2.4,1,17.2,1.2,19.2-0.2c2-1.4-0.5-2.7-1.6-2c-0.7-5.7-7.1-5.5-7.4-2.3c-2.8-8.4-10.4-1.1-8,3
		C91.6,227,90.5,229.2,92.3,230z"/>
	<path fill="#D1D5DA" d="M102.6,226.2c-1.5-8.5-4.8-8.9-12.4-12.4C91.7,221.4,98.9,226.3,102.6,226.2z"/>
	<path fill="#D1D5DA" d="M109.8,200.3c-11.5,14.3-8.2,24.6-7.2,25.9C105.7,224,112.3,217.3,109.8,200.3z"/>
	<path fill="#B2BBC4" d="M102.3,225.1l-0.5-0.3c1.3-1.9,3-8.3,4.2-12.6c0.6-2.4,1-3.6,1.2-3.9l0.5,0.3c-0.1,0.3-0.6,1.9-1.1,3.8
		C105.4,216.7,103.6,223.2,102.3,225.1z"/>
	<path fill="#B2BBC4" d="M103.7,221.2l-0.1-0.4c-0.3-0.9-0.8-2.7-0.7-3.7l0.5,0.1c-0.1,0.7,0.2,2.1,0.5,3c0.8-0.7,1.9-1.6,2.6-1.8
		l0.2,0.5c-0.7,0.3-2,1.3-2.7,2L103.7,221.2z"/>
	<path fill="#B2BBC4" d="M101.9,225c-0.3-0.8-2.2-5-9.6-8.9l0.3-0.5c7.4,3.9,9.4,8,9.9,9.1L101.9,225z"/>
	<path fill="#B2BBC4" d="M98.1,220.1c-0.6-0.2-2.2-0.3-2.8-0.2l-0.1-0.5c0.7-0.1,2.4,0,3.1,0.2L98.1,220.1z"/>
	<path fill="#B2BBC4" d="M98.8,220.7c-0.1-0.5-0.3-1.3-0.8-1.8l0.4-0.4c0.6,0.6,0.8,1.5,0.9,2L98.8,220.7z"/>
	<path fill="#3667B1" d="M471.9,189.8c-0.1-0.4-0.1-0.9-0.1-1.5c0-0.3,0-0.6,0-0.9l1.1,0c0,0.4,0,0.7,0,1c0,0.5,0,0.9,0,1.1
		L471.9,189.8z"/>
	<path fill="#4883C4" d="M420.6,242c-2.2-3.4-6.9-10.9-7.6-13.2c-0.7-2.3,21.8-9.2,24.8-10.2c1.1,2.9,1.2,10.7,1.9,15.4
		C440.7,240.3,427.6,245.8,420.6,242z"/>
	<path fill="#FFD33E" d="M219.3,74.5c5.7,9.8-0.5,31.8-9.5,42.7c-1.2,1.4-3.2,1.6-4.6,0.4c-3.4-2.8-9.8-4.8-13.9-5.6
		c-1.8-0.4-2.9-2.1-2.6-3.8c2.7-15.6,14.6-33.6,27.3-35.3C217.3,72.8,218.6,73.4,219.3,74.5z"/>
	<path fill="#FEF5B2" d="M198.9,114.3c-2.7-1-5.5-1.8-7.6-2.3c-1.8-0.4-2.9-2.1-2.6-3.8c2.7-15.6,14.6-33.6,27.3-35.3
		c0.6-0.1,1.1,0,1.6,0.2C214.7,79.8,200.8,110,198.9,114.3z"/>
	<path opacity="0.3" fill="#FEF5B2" d="M202.7,112.4l2.3,1.2c0.3,0.1,0.6,0,0.6-0.3l0.4-3.9c0-0.4-0.4-0.6-0.7-0.4l-2.8,2.7
		C202.4,111.9,202.4,112.3,202.7,112.4z"/>
	<path fill="#85B4E1" d="M179.4,147.2c-1,2.4,7.7,6.3,9.5,3.1c0.8-1.4,14.8-39,15.5-42.7c0.8-3.8-3.5-4.6-5.2-1.1
		C197.5,110.1,180.4,144.7,179.4,147.2z"/>
	<polygon fill="#85B4E1" points="184.4,261.7 183.9,237 359.6,237 359.4,262.8 	"/>
	<polygon fill="#CBE0F4" points="167.7,234.2 172.6,249 370,249.7 373.4,236 354.3,221.2 193.7,221.5 	"/>
	<path fill="#4883C4" d="M185.7,147.7c-1,2.4,1.7,3.2,3.2,2.6c0.8-1.4,14.8-39,15.5-42.7c-1,0.3-1.7,1.5-3.4,5.1
		C199.3,116.2,186.7,145.2,185.7,147.7z"/>
	<path fill="#3667B1" d="M267.5,232c-4-1.7-5-4.2-5.2-6c-0.3-2.9,1.6-6.1,4.6-8c4.5-2.9,14.5-6.4,26.3-9.2c1.6-0.4,3.1-0.7,4.5-1.1
		c8.4-2,13.9-3.4,27-5.5l0.2,1.1c-13,2.1-18.5,3.4-26.9,5.4c-1.4,0.3-2.9,0.7-4.5,1.1c-11.7,2.8-21.6,6.2-26,9.1
		c-2.6,1.7-4.3,4.5-4.1,7c0.2,2.1,1.8,3.9,4.5,5L267.5,232z"/>
	
		<rect x="222.6" y="223" transform="matrix(0.3511 -0.9363 0.9363 0.3511 -62.9159 356.3517)" fill="#3667B1" width="6.2" height="1.1"/>
	<path fill="#FEF5B2" d="M182.9,231.8c0,0,14.6-7.3,16.8-7.5c4.9-0.6,9.8,0.5,14.6,1.1c13.3,1.5,26.7-1.3,40-1.5
		c4.1-0.1,8.1,0.1,12.2-0.4c6-0.8,10.6-4.7,15.3-8.3c3-2.3,9.3-10.3,13.5-7.7c2,1.2,5.9,5.4,8.1,6.2c2.3,0.8,3.4,0.2,5.6,0.8
		c2.7,0.7,5.2,2.4,6.8,4.7c0.2,0.3,0.5,0.7,0.9,0.9c0.3,0.2,0.8,0.1,1.1,0.1c3.2-0.4,5-0.4,8,0.9c3.8,1.6,7.9,1.4,11.9,1.5
		c3.7,0.1,7.3,0.6,10.9,0.7c2.4,0.1,9.3,8.7,10.1,8.7C357.3,230.6,182.9,231.8,182.9,231.8z"/>
	<path fill="#3667B1" d="M310.4,215.3l-0.8-0.8c0.1-0.1,0.3-0.4,0.3-0.7c0-0.2-0.1-0.4-0.3-0.6c-0.9-0.8-4.5,0.3-6.1,0.8l-0.3-1.1
		c3.5-1.1,5.9-1.6,7.1-0.6c0.6,0.5,0.7,1,0.8,1.4C311.1,214.6,310.5,215.2,310.4,215.3z"/>
	<path fill="#FFD33E" d="M187,231.5l167.2-0.1c0,0-2.9-1.2-5.5-1.6s-22,0.2-27.6,0.8c-5.6,0.5-26.8-0.5-29.5-1.3
		c-2.7-0.9-12.6-3.4-15.5-1.4c-2.9,2-5.5,0.7-10.1,1.4c-4.6,0.7-14.5,2-17.9,1.6c-3.4-0.4-23.2-0.1-26-0.4c-2.8-0.3-4.2-1.2-8.6-0.7
		s-16.3-0.8-19.8,0C190.2,230.8,187.9,231.3,187,231.5z"/>
	<path fill="#3667B1" d="M312.4,216.6l-0.5-1c5.2-2.3,19-9.2,27-14.9l0.6,0.9C331.5,207.2,317.7,214.2,312.4,216.6z"/>
	<path fill="#3667B1" d="M357.7,231.2c-0.2,0-0.3,0-0.5,0l0.1-1.1c1.4,0.2,4-0.6,6.2-2.6c1.9-1.7,4.2-5,4.2-10.7
		c-0.1-7.5-3.4-11.5-7-15.7c-1.4-1.7-2.9-3.5-4.3-5.6l0.9-0.6c1.3,2,2.8,3.8,4.2,5.5c3.7,4.4,7.2,8.6,7.3,16.4
		c0,6.1-2.4,9.7-4.5,11.6C362.1,230.3,359.5,231.2,357.7,231.2z"/>
	<path fill="#3667B1" d="M324.9,232l-0.5-1c16-8.7,26.6-20.1,31.3-33.9c0.1-0.2,0.2-0.5,0.2-0.6c0.6-1.7,1.1-3.8-0.1-4.4
		c-0.9-0.4-2.4-0.7-4.4,1.9c-0.3,0.4-0.6,0.8-1,1.3c-1.9,2.6-4.4,6.1-12.9,12.2c-10.1,7.2-17.7,9.4-26.7,11.5
		c-8.9,2.1-17.1,6.5-17.5,8.1c-0.1,0.5-0.1,0.9,0.2,1.3c0.6,0.9,2.5,1.6,5.6,2l-0.1,1.1c-3.5-0.4-5.6-1.2-6.4-2.5
		c-0.4-0.6-0.5-1.4-0.3-2.2c0.6-2.4,9.9-6.9,18.3-8.9c8.8-2.1,16.4-4.2,26.3-11.3c8.3-5.9,10.8-9.4,12.6-11.9c0.3-0.5,0.7-0.9,1-1.3
		c1.9-2.4,3.8-3.2,5.7-2.2c1.6,0.7,1.8,2.7,0.7,5.8c-0.1,0.2-0.1,0.4-0.2,0.6C351.9,211.6,341.2,223.2,324.9,232z"/>
	<path fill="#3667B1" d="M285.6,232.1l-0.1-1.1c0,0,1.7-0.2,2.4-1.2c0.4-0.5,0.5-1.2,0.3-2c-0.4-1.7-3.2-3-5.7-4.2
		c-2.2-1-4-1.8-4.4-3c-0.5-1.4-0.4-2.6,0.2-3.6c0.9-1.6,2.8-2.7,5.9-3.5l0.3,1.1c-2.7,0.7-4.5,1.7-5.2,3c-0.4,0.8-0.5,1.7-0.1,2.7
		c0.2,0.7,2.1,1.6,3.8,2.3c2.7,1.3,5.8,2.7,6.3,4.9c0.3,1.1,0.1,2.1-0.5,2.9C287.8,231.9,285.7,232.1,285.6,232.1z"/>
	<path fill="#3667B1" d="M267.5,232c-4-1.7-5-4.2-5.2-6c-0.3-2.9,1.6-6.1,4.6-8l0.6,0.9c-2.7,1.7-4.3,4.5-4.1,7
		c0.2,2.2,1.8,3.9,4.5,5.1L267.5,232z"/>
	<path fill="#3667B1" d="M281.2,231.5v-1.1c1.4,0,2.6-1.7,2.9-3.3l1.1,0.2C284.7,229.4,283.2,231.5,281.2,231.5z"/>
	<path fill="#3667B1" d="M299.3,231.8c-1.9-1-2.7-2.8-2.3-4.7l1.1,0.3c-0.4,1.4,0.3,2.7,1.7,3.5L299.3,231.8z"/>
	<path fill="#3667B1" d="M346,215.4l-0.1-1.1c0.4,0,9.5-0.5,13.7-0.3l-0.1,1.1C355.4,214.9,346.1,215.4,346,215.4z"/>
	<path fill="#3667B1" d="M347.8,215l-0.4-1c5.1-2.2,5.8-6.8,5.5-10.2l1.1-0.1C354.4,209.1,352.2,213.1,347.8,215z"/>
	<path fill="#3667B1" d="M355.5,215l-0.7-0.9c0.8-0.7,1.8-4.1,1.2-7.1l1.1-0.2C357.8,210,356.8,213.9,355.5,215z"/>
	<path fill="#D2D5DA" d="M185.7,262.7c-0.3-1.2-1.4-5.7-3.1-8.7c-1.3-2.2-4.4-0.3-3.6,1.5C180.6,259.6,184.7,262,185.7,262.7z"/>
	<path fill="#D2D5DA" d="M185.7,262.7c1-1.1,2.7-2.8,3.1-5.6c0.3-1.7-2.2-3.5-3.3-1.4C184.7,257.2,185.6,261.7,185.7,262.7z"/>
	<path fill="#D2D5DA" d="M185.8,262.6c-1.4,0.4-3.6,1.4-6.3,0.7c-1.6-0.4-2.4-3.3,0-3.5C181.1,259.7,184.9,262.1,185.8,262.6z"/>
	<path fill="#3667B1" d="M198.7,217.4c-4.2-1.5-6.8-4.8-7.6-9.3c-1.6-10,6.3-22.7,21.1-34l0.7,0.9c-11.2,8.5-22.5,21.6-20.7,32.9
		c0.7,4.1,3.1,7.1,6.8,8.5L198.7,217.4z"/>
	<path fill="#3667B1" d="M198.7,182.2c-5.1,0-11.2-1.3-16.9-4.9c-5.5-3.5-12.4-10.4-14.8-23.6c-1.9-10.5-0.6-18.9,3.9-25
		c5.1-7.1,13.1-9.2,17.4-9.8c5.8-0.8,11.6,1.6,14.9,6.3c3.1,4.4,3.5,9.7,1,14.6c-5,9.8-13.1,9.3-15,8.6l0.4-1.1c1.6,0.6,9,1,13.6-8
		c2.3-4.5,2-9.4-0.9-13.4c-3.1-4.4-8.4-6.6-13.9-5.8c-4.1,0.6-11.8,2.6-16.7,9.4c-4.2,5.9-5.5,14-3.7,24.2
		c2.3,12.8,9,19.5,14.3,22.9c8.1,5.2,17,5.5,22.6,4l0.3,1.1C203.5,181.9,201.2,182.2,198.7,182.2z"/>
	<path fill="#3667B1" d="M204.3,170.9c-1.8,0-3.8-0.2-6-0.6c-11.4-2.3-14.6-12.1-13.9-19.9l1.1,0.1c-0.7,7.2,2.3,16.5,13,18.7
		c11.1,2.3,17-2.5,17.1-2.6l0.7,0.9C216,167.6,212,170.9,204.3,170.9z"/>
	<path fill="#3667B1" d="M191.3,146.6c-0.3-1.9-1.5-3.4-3.4-4.3c-2.2-1.1-5-1-7.2,0.2l-0.5-1c2.5-1.4,5.7-1.5,8.2-0.2
		c2.2,1,3.6,2.9,4,5.1L191.3,146.6z"/>
	<path fill="#3667B1" d="M205.3,180.7c-2.6-1.3-2.3-2.9-2-3.6c0.9-2,5-3.5,8.2-2.2l-0.4,1c-2.8-1.1-6.2,0.2-6.8,1.6
		c-0.4,0.9,0.6,1.6,1.5,2.1L205.3,180.7z"/>
	<path fill="#3667B1" d="M196.6,178.6c-1.4,0-3-0.5-4.5-1.2c-2.5-1.2-5.1-3.4-4.1-5.4l0,0c0.3-0.6,0.9-1.2,2.4-1.4
		c2.8-0.2,7,1.7,8.5,3.9c0.7,1,0.8,2,0.3,2.8C198.8,178.2,197.8,178.6,196.6,178.6z M190.9,171.7c-0.1,0-0.2,0-0.4,0
		c-0.5,0-1.2,0.2-1.4,0.7l0,0c-0.5,1,1,2.7,3.6,3.9c2.6,1.2,5.1,1.4,5.6,0.5c0.3-0.5,0.2-1.1-0.2-1.7
		C196.8,173.4,193.3,171.7,190.9,171.7z"/>
	<path fill="#3667B1" d="M183,166.6c-3.6,0-5.5-5.8-5.5-9.8c0-1.3,0.2-2.5,0.6-3.3c0.6-1.3,1.5-1.6,2.2-1.6c2.5,0,4.8,7.7,4.8,11.3
		c0,1-0.1,1.7-0.4,2.3C184.3,166.2,183.7,166.6,183,166.6z M180.3,153.1c-0.2,0-0.8,0-1.2,0.9c-0.3,0.7-0.5,1.6-0.5,2.8
		c0,4,1.9,8.7,4.4,8.7c0.2,0,0.4-0.1,0.7-0.5c0.2-0.4,0.3-1,0.3-1.8C183.9,159,181.4,153.1,180.3,153.1z"/>
	<path fill="#3667B1" d="M217.5,223.1c-0.6,0-1.3-0.1-2.2-0.5c-3.6-1.6-5.1-4.4-6.3-6.9c-0.3-0.5-0.5-1-0.8-1.5
		c-1.4-2.5-5.8-5.5-8.9-6.1c-0.5-0.1-0.9-0.4-1.2-0.9c-0.2-0.4-0.2-1,0-1.4c1.7-3.8,3.6-8.3,5.6-12.8c5.3-12.1,10.8-24.7,12.1-27.2
		c1.6-3.3,3.7-7.3,7.2-6.3c3,0.9,2.3,4.4,1.8,6.8c-0.1,0.4-0.1,0.7-0.2,1.1c-0.2,1.2-1.8,8.4-3.5,16c-1.7,7.5-3.4,15.3-3.8,17.2
		l-1.1-0.2c0.4-2,2.1-9.8,3.8-17.3c1.6-7.3,3.3-14.8,3.5-16c0.1-0.3,0.1-0.7,0.2-1.1c0.5-2.8,0.8-4.9-1.1-5.5c-2.4-0.8-4,2-5.8,5.7
		c-1.3,2.5-6.7,15-12,27.2c-2,4.6-3.9,9-5.6,12.8c-0.1,0.2,0,0.4,0,0.5c0.1,0.1,0.2,0.2,0.4,0.3c3.4,0.7,8.1,3.9,9.6,6.7
		c0.3,0.5,0.6,1,0.8,1.6c1.2,2.4,2.5,4.9,5.8,6.3c1.8,0.8,2.9,0.3,3.2-0.4c0.3-0.6,0.2-1.6-0.7-2.1l0.6-1c1.2,0.7,1.7,2.3,1.1,3.5
		C219.6,222.5,218.8,223.1,217.5,223.1z"/>
	<path fill="#3667B1" d="M217.1,219.7l-0.3-1c2.9-1,4.8-2.8,5.5-5.5c0.8-2.8,0-5.5-0.2-6.3c-0.9-2.8-4.2-7.7-10-6l-0.3-1
		c6.5-2,10.3,3.5,11.3,6.7c0.3,0.8,1.1,3.8,0.3,6.9C222.5,216.5,220.4,218.7,217.1,219.7z"/>
	<path fill="#3667B1" d="M217.7,162.7c-6.6-14.2-6.4-27,0.7-40.3c7.1-13.3,23-15.8,28.5-15.6l0,1.1c-4.9-0.2-20.6,2.3-27.4,15
		c-7,13.1-7.2,25.2-0.7,39.3L217.7,162.7z"/>
	<path fill="#3667B1" d="M253.9,183.9c-1.5,0-3.1-0.1-4.8-0.3c-9.9-1.1-18.6-5.6-25.8-13.2l0.8-0.7c7.1,7.4,15.5,11.7,25.2,12.9
		c8.7,1,14.6-0.6,17.6-4.8c2-2.8,1.4-6.5,1.1-8.8c-0.2-1.1-0.2-1.6-0.1-2c0.1-0.2,0.3-0.5,1.2-1.5c3-3.5,12.1-14.1,13.4-25.9
		c1.6-14.2-14.8-26.6-20.1-28.4l0.4-1c5.4,1.9,22.5,14.7,20.8,29.5c-1.4,12.1-10.7,22.9-13.7,26.4c-0.5,0.6-0.9,1.1-1,1.2
		c0,0.1,0.1,0.8,0.2,1.4c0.3,2.2,0.9,6.3-1.3,9.5C265.1,182,260.5,183.9,253.9,183.9z"/>
	<path fill="#3667B1" d="M231.6,177.5c-3.8-4-4.9-7.4-3.4-10.9c1.2-2.7,2.8-3.3,4.3-3.8c1.2-0.4,2.2-0.8,3-2.2
		c0.6-1.1,0.5-3.8,0.3-6.9c-0.3-5.9-0.7-13.3,3.5-17.5c6.2-6.2,13.2-7.6,19.3-3.9c2,1.2,4.2,3.1,6.5,5.1c4,3.4,8,6.9,11.1,6.8
		c4.6-0.2,6.3-5.9,6.4-5.9l1.1,0.3c-0.1,0.3-2,6.5-7.4,6.7c-3.5,0.1-7.8-3.5-11.9-7.1c-2.3-1.9-4.4-3.8-6.3-5
		c-5.7-3.5-12.1-2.2-17.9,3.7c-3.9,3.9-3.5,10.9-3.2,16.6c0.2,3.4,0.3,6.1-0.5,7.5c-1,1.7-2.4,2.3-3.6,2.7c-1.4,0.5-2.6,1-3.6,3.2
		c-0.8,1.9-1.4,5,3.1,9.7L231.6,177.5z"/>
	<path fill="#3667B1" d="M218.2,196.8l-1.1-0.4c0.2-0.6,5.4-15.8,12.3-21.4l0.7,0.9C223.5,181.3,218.3,196.7,218.2,196.8z"/>
	<path fill="#3667B1" d="M233.3,202.8h-1.1c0-0.1,0-12.7,1.5-24.8l1.1,0.1C233.3,190.2,233.3,202.6,233.3,202.8z"/>
	<path fill="#3667B1" d="M231.6,220.4l-0.6-1c2.9-1.8,7.5-5.5,6.8-10.5c-0.7-4.4-4.1-6.6-10.7-6.6v-1.1c7.1,0,11,2.5,11.8,7.5
		C239.7,214.5,234.6,218.5,231.6,220.4z"/>
	<path fill="#3667B1" d="M230.5,224c-0.1,0-0.3,0-0.4,0c-1.9-0.2-3.9-2.3-4.6-4.9c-0.9-3.3-1.8-5.8-2.7-7.9l1-0.4
		c0.9,2.1,1.8,4.7,2.7,8c0.7,2.5,2.4,4,3.7,4.1c0.6,0.1,0.8-0.1,0.9-0.2c0.6-0.5,0.7-2.3,0.7-3.6h1.1c0,2.5-0.3,3.8-1,4.4
		C231.5,223.8,231.1,224,230.5,224z"/>
	<path fill="#3667B1" d="M221.5,203.5l-1.1-0.1c0.3-3.7,2.8-16.8,6-25.3l1,0.4C224.5,186.4,221.9,199.3,221.5,203.5z"/>
	<path fill="#3667B1" d="M262.1,171.8c-0.5,0-1-0.1-1.4-0.2c-1.1-0.2-2.4-0.8-2.8-1.6c-0.2-0.4-0.3-0.8-0.1-1.2l0,0
		c0.5-1.3,2.4-1.6,3.9-1.2c1.2,0.4,2.3,1.2,2.5,2.1c0.2,0.5,0.1,0.9-0.2,1.3C263.5,171.7,262.8,171.8,262.1,171.8z M258.7,169.2
		c0,0.1,0,0.1,0,0.3c0.2,0.4,1.2,0.9,2.1,1.1c1.5,0.3,2,0.1,2.1-0.1c0,0,0.1-0.1,0-0.3c-0.2-0.4-0.9-1.1-1.8-1.4
		C260.1,168.4,258.9,168.7,258.7,169.2L258.7,169.2z"/>
	<path fill="#3667B1" d="M282.7,132.1l-0.9-0.7c2.6-3.1,4.5-9.4,4.2-10.2c-0.6-0.8-6.8-1.5-10.8-0.1l-0.4-1.1
		c3.8-1.4,11.2-1,12.2,0.6C287.9,122.1,285,129.2,282.7,132.1z"/>
	<path fill="#3667B1" d="M279.3,125.9l-0.8-0.8c2.4-2.5,5.9-3.6,6.1-3.7l0.3,1.1C284.9,122.5,281.5,123.6,279.3,125.9z"/>
	<path fill="#3667B1" d="M262.5,119.8l-1-0.4c0.8-2,1.5-10.4-0.2-14.2c-0.4-0.8-0.8-1.3-1.3-1.5c-4.4-1.7-16.4,4.7-21.4,12.7l-1-0.6
		c5-7.9,17.5-15.1,22.8-13.1c0.8,0.3,1.4,1,1.9,2.1C264,108.6,263.4,117.3,262.5,119.8z"/>
	<path fill="#3667B1" d="M245.8,121.1l-1.1-0.4c3.2-8.8,9.7-14.3,14.3-16.3l0.5,1C255.1,107.3,248.9,112.6,245.8,121.1z"/>
	<path fill="#3667B1" d="M327.6,203.5c-19.4,0-23.5-12.3-23.7-12.9c-0.6-2-0.2-3.1,0.1-4.1c0.2-0.5,0.3-1,0.3-1.5
		c0-0.4-0.5-1.2-1-2.2c-1.2-2.3-3.3-6-4.7-12.3c-2.1-8.8-2.2-18.7,11-30.9c6.3-5.9,17.4-8.3,28.2-6.2c10.7,2.1,19.1,8.1,23,16.4
		c9.2,19.8,2.6,31.6-4.9,42l-0.9-0.7c7.7-10.5,13.8-21.5,4.8-40.8c-3.7-8-11.8-13.8-22.2-15.8c-10.4-2-21.1,0.3-27.2,5.9
		c-12.8,11.9-12.7,21.3-10.7,29.8c1.4,6.1,3.4,9.8,4.6,12c0.7,1.2,1.1,2,1.2,2.6c0.1,0.7-0.1,1.4-0.3,1.9c-0.3,0.9-0.6,1.8-0.1,3.4
		c1.3,4.2,7.7,12.1,22.6,12.1c7.8,0,15.6-3,19.6-4.8l0.5,1C343.6,200.4,335.7,203.5,327.6,203.5z"/>
	<path fill="#3667B1" d="M268.7,171.5c-0.2,0-0.4-0.1-0.5-0.3c-0.1-0.3,0-0.6,0.3-0.8c3.7-1.9,9.8-1.3,10-1.3c0.3,0,0.5,0.3,0.5,0.6
		c0,0.3-0.3,0.5-0.6,0.5c-0.1,0-6-0.5-9.4,1.2C268.9,171.5,268.8,171.5,268.7,171.5z"/>
	<path fill="#3667B1" d="M276.1,176c-0.1,0-0.2,0-0.2-0.1c0,0-4.3-1.9-7.2-2.1c-0.3,0-0.5-0.3-0.5-0.6c0-0.3,0.3-0.6,0.6-0.5
		c3.1,0.2,7.4,2.1,7.6,2.2c0.3,0.1,0.4,0.5,0.3,0.7C276.5,175.9,276.3,176,276.1,176z"/>
	<path fill="#3667B1" d="M223.6,155.5c-5.1-2.9-12.7-5.4-16-6l0.2-1.1c3.4,0.6,11.1,3.2,16.3,6.2L223.6,155.5z"/>
	<path fill="#3667B1" d="M223,157.7c-5.4-0.7-12.6-0.5-14.5-0.3l-0.2-1.1c2-0.3,9.3-0.4,14.8,0.3L223,157.7z"/>
	<path fill="#3667B1" d="M214.5,151.5c-0.1,0-0.1,0-0.2,0c-2.6-0.9-5.1-1.6-6.7-1.9c-0.3-0.1-0.5-0.3-0.4-0.6
		c0.1-0.3,0.3-0.5,0.6-0.4c1.7,0.3,4.2,1.1,6.8,2c0.3,0.1,0.4,0.4,0.3,0.7C214.9,151.3,214.7,151.5,214.5,151.5z"/>
	<path fill="#3667B1" d="M208.4,157.4c-0.3,0-0.5-0.2-0.5-0.5c0-0.3,0.2-0.6,0.5-0.6c1.1-0.2,4.1-0.3,7.5-0.2c0.3,0,0.5,0.3,0.5,0.6
		s-0.3,0.5-0.6,0.5C212.4,157.1,209.5,157.2,208.4,157.4C208.4,157.4,208.4,157.4,208.4,157.4z"/>
	<path fill="#3667B1" d="M357.9,193.3c-0.3,0-0.6,0-0.9,0l0.1-1.1c6.9,0.5,16-5.1,21.6-10.5c5.9-5.7,10.5-14.5,10.6-14.6l1,0.5
		c0,0.1-4.7,9.1-10.8,14.9C373.7,188,364.9,193.3,357.9,193.3z"/>
	<path fill="#3667B1" d="M367.1,200.1c-4.4,0-7.5-0.9-7.7-1l0.3-1c0.1,0,6.3,1.9,13.1,0.4c8.2-1.8,14.8-5.9,22.1-13.7
		c2-2.1,3.8-4.3,5.3-6.6c4.2-6.1,6.8-12.8,7.3-18.9c0.5-6.8-1.9-12.4-8.1-18.7c-2.4-2.4-5.1-3.6-7.8-3.2c-2.6,0.3-4.9,2-6.5,4.7
		c-2.2,3.8-1.8,6.4-1.5,9c0.1,0.8,0.2,1.6,0.3,2.4c0,1.1-0.1,1.9-0.1,2.6c-0.2,1.4-0.3,2.7,0.5,5.6c1.1,4.2,5.3,5.5,12,7.1l-0.3,1.1
		c-6.2-1.5-11.5-2.8-12.8-7.9c-0.8-3.2-0.7-4.6-0.5-6c0.1-0.7,0.2-1.5,0.1-2.5c0-0.7-0.1-1.5-0.3-2.3c-0.4-2.6-0.8-5.5,1.6-9.7
		c1.7-2.9,4.4-4.8,7.3-5.2c2.1-0.3,5.3,0.1,8.7,3.5c6.4,6.4,9,12.4,8.4,19.5c-0.5,6.2-3.2,13.1-7.5,19.4c-1.6,2.3-3.4,4.6-5.4,6.7
		c-7.5,7.9-14.2,12.1-22.6,14C371,200,369,200.1,367.1,200.1z"/>
	<path fill="#3667B1" d="M346.4,165.8l-0.8-0.8c4.1-4.5,4.2-12.5,0.3-18.4c-4.7-1.1-12.2,0.8-15.7,5.4l-0.9-0.7c3.8-5,12-7,17-5.7
		l0.2,0.1l0.1,0.2C351,152.1,350.9,160.9,346.4,165.8z"/>
	<path fill="#3667B1" d="M344.7,163.7l-1.1,0c0.1-5.2-2.5-9.1-4.8-11.1c-2.7-0.8-6.2,0.2-8.1,2.3l-0.8-0.8c2.1-2.3,5.7-3.4,8.8-2.7
		c0.2-0.1,0.4,0,0.6,0.1C341.9,153.5,344.8,157.9,344.7,163.7z"/>
	<path fill="#3667B1" d="M298.3,156.5c-0.7-0.8-3-1.5-5.2-1.2l-0.1-1.1c2.4-0.3,5.1,0.4,6.2,1.5L298.3,156.5z"/>
	<path fill="#3667B1" d="M297.5,162.5c-4-3.1-6.7-7-6.9-8.5c-0.1-0.4,0.1-0.8,0.6-1.3c1.8-2,8.2-5.8,11.9-5.7l0,1.1
		c-3.8-0.2-11.1,4.7-11.4,5.8c0.2,1,2.6,4.7,6.5,7.7L297.5,162.5z"/>
	<path fill="#3667B1" d="M340.6,201.3l-0.3-1.1c0.1,0,2.5-0.7,3-4.1c0.3-2-1.4-3.6-2.8-5.1c-1.1-1-2-1.9-2.1-2.9
		c-0.1-0.7,0.1-1.8,0.3-3.3c0.3-2.8,0.8-6.7,0.1-10.2c-1-4.9-3-9.4-10.6-9.1c-4.1,0.1-7.5,1.5-10.8,2.8c-2.9,1.2-5.7,2.3-8.7,2.5
		c-5.7,0.3-7.7-4.3-8.6-6.3c-0.2-0.4-0.3-0.7-0.4-0.8c-0.2-0.2-0.3-0.3-0.3-0.4c0,0-0.5,0.5-0.5,3.9h-1.1c0-3.2,0.4-4.7,1.4-5
		c0.3-0.1,0.9-0.2,1.6,0.8c0.1,0.2,0.3,0.5,0.5,1c0.9,2.1,2.6,5.9,7.5,5.7c2.8-0.2,5.5-1.2,8.3-2.4c3.4-1.4,6.9-2.8,11.2-2.9
		c8.6-0.2,10.8,5,11.8,10c0.7,3.7,0.3,7.7-0.1,10.6c-0.2,1.3-0.3,2.4-0.2,3c0.1,0.6,0.9,1.4,1.7,2.2c1.6,1.5,3.5,3.5,3.1,6
		C343.9,200.5,340.8,201.3,340.6,201.3z"/>
	<path fill="#3667B1" d="M316.3,193.7c-0.3,0-0.7,0-1.1-0.1c-2.1-0.3-2.8-1.3-2.7-2.2c0-0.4,0.3-0.8,0.7-1.1
		c0.7-0.5,1.7-0.8,2.8-0.6c1.8,0.2,2.9,1.2,2.8,2.4c0,0.4-0.2,0.8-0.5,1C317.8,193.5,317.2,193.7,316.3,193.7z M315.4,192.5
		c1.5,0.2,2-0.1,2.2-0.2c0.1-0.1,0.1-0.1,0.1-0.2c0-0.6-0.7-1.1-1.9-1.2c-0.9-0.1-1.6,0.1-1.9,0.4c-0.1,0.1-0.2,0.2-0.2,0.3
		C313.6,191.9,314.2,192.3,315.4,192.5z"/>
	<path opacity="0.3" fill="none" stroke="#3667B1" stroke-width="1.085" stroke-miterlimit="10" d="M312.2,216"/>
	<path fill="#3667B1" d="M317.3,212.7c-1.1,0-2-0.2-2.3-0.8c-0.3-0.4-0.3-1-0.1-1.5c0.5-1.5,2.4-3,5.3-4.1l0,0
		c6.4-2.6,8.5-1.5,9.2-0.1c0.3,0.5,0.8,1.6-5.8,5C322.1,211.9,319.3,212.7,317.3,212.7z M320.6,207.3c-3,1.2-4.4,2.6-4.7,3.5
		c-0.1,0.3-0.1,0.5,0,0.6c0.4,0.5,4.4,0.2,7.2-1.2c4-2.1,5.2-3.3,5.3-3.6C327.9,205.6,325.6,205.3,320.6,207.3L320.6,207.3z"/>
	<path fill="#3667B1" d="M358.7,198.5l-0.1-1.1c0.7,0,1.5,0,2.3-0.1c2.2,0,5,0,5.1-1.1c0-0.1,0-0.2-0.1-0.3c-1-0.9-5-0.8-8.4-0.3
		l-0.2-1.1c0.3,0,7.4-1.1,9.3,0.6c0.4,0.3,0.5,0.7,0.5,1.2c-0.1,2.2-3.2,2.2-6.2,2.2C360.1,198.4,359.4,198.4,358.7,198.5z"/>
	<path fill="#3667B1" d="M373.7,195.1c-0.1,0-0.2,0-0.4,0c-0.7-0.1-1-0.5-1.2-0.8c-0.9-1.6,2-5,3.1-5.9c1.1-1,5.9-4.2,7.5-2.5
		c1.6,1.7-1.5,4.9-2.8,6.2C378.5,193.4,375.5,195.1,373.7,195.1z M381.4,186.5c-1.2,0-3.9,1.4-5.4,2.7c-1.6,1.4-3.2,3.9-2.9,4.5l0,0
		c0,0,0.1,0.2,0.4,0.2c1.3,0.2,4.2-1.3,5.6-2.7c2.2-2.1,3.3-4,2.8-4.6C381.8,186.5,381.6,186.5,381.4,186.5z"/>
	<path fill="#3667B1" d="M387.5,182.3c-0.5,0-0.9-0.2-1.2-0.5c-1.3-1.4-0.4-4.5,1.2-6.7c1.6-2.1,4-4.5,5.8-4.7
		c0.5-0.1,1,0.1,1.4,0.4c1.5,1.3,0.9,4.2-1.6,7.3C392.4,179.1,389.7,182.3,387.5,182.3C387.6,182.3,387.5,182.3,387.5,182.3z
		 M393.6,171.6c0,0-0.1,0-0.1,0c-1.2,0.1-3.2,1.9-5,4.2l0,0c-1.5,1.9-2.1,4.4-1.3,5.2c0.1,0.1,0.2,0.2,0.5,0.2c1.1,0,3-1.5,4.8-3.8
		c2.2-2.8,2.5-5,1.7-5.7C393.9,171.7,393.8,171.6,393.6,171.6z"/>
	<ellipse opacity="0.3" fill="#FFFFFF" cx="391.7" cy="221.4" rx="0.6" ry="0.4"/>
	<path fill="#FEF5B2" d="M396,178.9c-0.7-0.3-1.4-0.4-2.2-0.6c-2.8-0.5-6.6,0.1-8.1,1.8c-1.2,1.3-1.5,3.1-1.7,4.8
		c-1.2,11.1,1.1,22.3,5,32.9C399.9,208.8,403.9,182.5,396,178.9z"/>
	<path fill="#FFD33E" d="M399.7,183.2c-0.2-1-0.5-2.1-1.3-2.9c-0.6-0.6-1.4-1.1-2.4-1.5c1.4,0.9,2.5,2.5,1.9,4.4
		c-3.1,4.7-10.3,1.2-12.8,0c1.4,2,7.8,6.2,13.1,1.8c0.3,1.2,0.2,1.7,0.4,3c-3.8,5.3-13.5,0.5-13.5,0.8c0,0.4,5.8,6.3,13.7,1.9
		c0.1,1.2,0,2.4,0,3.6c-4.7,4-13.6-0.6-13.6-0.2c0,0.5,5.5,6.4,13.3,3.2c-0.2,1.2-0.3,2-0.6,3.1c-4.1,3.3-12-0.6-12.1-0.2
		c-0.1,0.5,6.4,5.5,11.3,2.8c-0.3,0.9-0.6,1.8-1,2.7c-0.1,0.3-2.4,2.5-9.5-0.1c-0.3,0.6,4.6,3.9,8.3,2.6c-0.4,0.8-0.8,1.5-1.3,2.3
		c-0.2,0.4-2.9,0.6-5.4-0.3c-0.2,0.3,2.3,2.6,4.1,2.2c-1.1,1.5-2.2,2.9-3.5,4.2c0.4,1.1,0.8,2.2,1.3,3.3c0.7,1.6,1.6,3.1,2.2,4.7
		c3-6.1,5-12.9,6.5-19.3C400.5,198.1,401.5,190.6,399.7,183.2z"/>
	<path fill="#3667B1" d="M304.3,187.4c-0.1,0-0.3,0-0.4-0.1c-3.3-3-6.3-4.4-6.4-4.4c-0.3-0.1-0.4-0.5-0.3-0.7
		c0.1-0.3,0.4-0.4,0.7-0.3c0.1,0.1,3.2,1.5,6.6,4.6c0.2,0.2,0.2,0.5,0,0.8C304.6,187.3,304.5,187.4,304.3,187.4z"/>
	<path fill="#3667B1" d="M304.1,189.4c0,0-0.1,0-0.1,0c-2.7-0.7-6.6-1.8-6.6-1.8l0.3-1c0,0,3.9,1,6.6,1.8c0.3,0.1,0.5,0.4,0.4,0.7
		C304.6,189.2,304.4,189.4,304.1,189.4z"/>
	<path fill="#3667B1" d="M349.4,188.1l-0.5-1c6.9-3.3,13.9-3,14.2-2.9l-0.1,1.1C363,185.2,356.1,184.9,349.4,188.1z"/>
	<path fill="#3667B1" d="M349.9,190.6l-0.3-1c3.3-1,8.6-1.1,11.3-0.6l-0.2,1.1C358.1,189.6,353,189.7,349.9,190.6z"/>
	<path fill="#3667B1" d="M355.8,185.9c-0.3,0-0.5-0.2-0.5-0.4c-0.1-0.3,0.1-0.6,0.4-0.6c4.2-0.9,7.3-0.7,7.4-0.7
		c0.3,0,0.5,0.3,0.5,0.6c0,0.3-0.3,0.5-0.6,0.5c0,0-3.1-0.1-7.1,0.7C355.9,185.9,355.8,185.9,355.8,185.9z"/>
	<path fill="#3667B1" d="M360.7,190.1c0,0-0.1,0-0.1,0c-1.3-0.3-3.2-0.4-5.3-0.3c-0.3,0-0.6-0.2-0.6-0.5c0-0.3,0.2-0.6,0.5-0.6
		c2.2-0.1,4.2,0,5.6,0.3c0.3,0.1,0.5,0.3,0.4,0.6C361.2,189.9,361,190.1,360.7,190.1z"/>
	<path fill="#FFD33E" d="M291.8,209.4c-1.4,0-3.2,1.9-3.8,2.8c1.4-0.4,2.1-1.8,3.4-0.5c0.2-1,1.2-0.7,2-0.1c0-1.1,0.5-2,1.8-2.3
		C292.8,208.6,292.3,209.4,291.8,209.4z"/>
	<path fill="#85B4E1" d="M292.7,209.9c-6.7-11.1-11.6-9.9-24-10.7C274.9,209.1,287.5,212.1,292.7,209.9z"/>
	<path fill="#85B4E1" d="M288.9,169.7c-8.4,26.3,1.7,38.9,3.9,40.2C295.9,205.3,301.5,192.2,288.9,169.7z"/>
	<path fill="#85B4E1" d="M388.1,137.2c6.9,5.7,4,39.9,2.5,42.9c0.6,1.3,2.9,1.1,3.8,0.6c1.4-12.7-2-43.7,0.2-45.9
		C391,134.7,388.1,137.2,388.1,137.2z"/>
	<path fill="#85B4E1" d="M431,120.3c-20-1.1-30.2,21.6-39.5,16C389.1,134.9,393.7,107.6,431,120.3z"/>
	<path fill="#85B4E1" d="M352.5,126.9c2.5-3.6,18.7-10.8,30.7-1.2c5.9,4.7,8.3,11.4,8.9,13.9C386,137.6,374.2,127.4,352.5,126.9z"/>
	<path fill="#85B4E1" d="M410,99.7c-17.4,4.2-29,29.8-20.3,38.6C396.5,131.5,402.5,108.5,410,99.7z"/>
	<path fill="#3667B1" d="M396,169.9c-6.2-1.5-11.5-2.8-12.8-7.9c-0.8-3.2-0.7-4.6-0.5-6c0.1-0.7,0.2-1.5,0.1-2.5l1.1,0
		c0,1.1-0.1,1.9-0.1,2.6c-0.2,1.4-0.3,2.7,0.5,5.6c1.1,4.2,5.3,5.5,12,7.1L396,169.9z"/>
	<path fill="#B2BBC4" d="M143,254.9c-1.6,2.9-16.3,2.2-17.2-1.9c-0.6-2.9-1.6-9.6-2-12.4c3.5,1.8,21.9-0.1,22.8-1.1
		C145.4,243.9,143.6,253.8,143,254.9z"/>
	<path fill="#3667B1" d="M401,179l-0.9-0.6c4.3-6.2,6.9-12.9,7.4-19c0.5-6.8-1.9-12.4-8.1-18.6c-2.4-2.4-5.1-3.6-7.7-3.2
		c-2.6,0.3-4.9,2-6.5,4.7c-2.2,3.8-1.8,6.4-1.5,9c0.1,0.8,0.2,1.6,0.3,2.4c0,1.1-0.1,1.9-0.1,2.6c-0.1,1.4-0.3,2.7,0.5,5.6
		c1.1,4.2,5.3,5.4,12,7.1L396,170c-6.2-1.5-11.5-2.8-12.8-7.9c-0.8-3.2-0.7-4.6-0.5-6c0.1-0.7,0.2-1.5,0.1-2.5
		c0-0.7-0.1-1.5-0.3-2.3c-0.4-2.6-0.8-5.6,1.6-9.7c1.7-2.9,4.4-4.8,7.3-5.2c2.1-0.3,5.3,0.1,8.7,3.6c6.4,6.4,9,12.5,8.4,19.5
		C408.1,165.7,405.4,172.6,401,179z"/>
	
		<ellipse transform="matrix(0.3074 -0.9516 0.9516 0.3074 -14.5178 278.2922)" fill="#4883C4" cx="183.9" cy="149.1" rx="1.9" ry="4.9"/>
	<path fill="#3667B1" d="M289.7,182.6C289.7,182.6,289.6,182.6,289.7,182.6c-1.1,0-2-1-2-2.2c0-0.6,0.2-1.1,0.6-1.5
		c0.4-0.4,0.9-0.6,1.4-0.6c0,0,0,0,0,0c1.1,0,2,1,2,2.2l0,0c0,0.6-0.2,1.1-0.6,1.5C290.7,182.4,290.2,182.6,289.7,182.6z M289.7,179
		c-0.4,0-0.7,0.1-0.9,0.4c-0.3,0.3-0.4,0.7-0.4,1.1c0,0.8,0.6,1.5,1.3,1.5c0,0,0,0,0,0c0.4,0,0.7-0.1,0.9-0.4
		c0.3-0.3,0.4-0.7,0.4-1.1C291,179.7,290.4,179,289.7,179C289.7,179,289.7,179,289.7,179z"/>
	<path fill="#3667B1" d="M291.6,208.6l-0.6-0.1c0.7-3.4-0.3-13.3-0.9-19.9c-0.4-3.7-0.6-5.6-0.5-6.1l0.6,0.1c-0.1,0.5,0.2,3,0.5,6
		C291.4,195.1,292.4,205.1,291.6,208.6z"/>
	<path fill="#3667B1" d="M291.5,202.1l-0.3-0.4c-0.9-1.1-2.6-3.3-2.9-4.8l0.6-0.2c0.3,1.2,1.6,3,2.5,4.1c0.7-1.4,1.8-3.4,2.6-4.1
		l0.4,0.5c-0.8,0.7-2.1,3-2.7,4.3L291.5,202.1z"/>
	<path fill="#D2D5DA" d="M119,232.1c-1,1.5,0.5,6.8,1.2,9.7c1,4.4,26.4,5.1,28.6-0.6c2.2-5.5,4.4-8.2,2.2-10.2
		C146.2,226.4,122.1,227.5,119,232.1z"/>
	<path fill="#3667B1" d="M291.1,208.7c-0.9-1-5.9-5.8-18.3-7.3l0.1-0.6c12.4,1.4,17.5,6.1,18.7,7.5L291.1,208.7z"/>
	<path fill="#3667B1" d="M279,205l-0.3-0.6c0.9-0.5,3.3-1.3,4.4-1.4l0,0.7C282.2,203.8,279.9,204.6,279,205z"/>
	<path fill="#3667B1" d="M284.4,204.3c-0.5-0.7-1.1-1.7-2.1-2.1l0.2-0.6c1.2,0.5,1.9,1.6,2.3,2.3L284.4,204.3z"/>
	<path fill="#3667B1" d="M290.9,190.2l-0.6-0.2c0.3-1.2,0.6-2.6,1.1-3.2l0.5,0.4C291.4,187.8,291.1,189.4,290.9,190.2z"/>
	<path fill="#3667B1" d="M390.8,135.6l-0.2-1.1c-2.1-10.6,3-21.4,8.9-26.1l0.4,0.5c-5.5,4.5-10.3,14.4-8.8,24.5
		c2.3-4.5,10.9-16,25.8-15.4l0,0.7c-15.8-0.7-24.4,12.6-25.6,15.9L390.8,135.6z"/>
	<path fill="#3667B1" d="M390.8,135.7c-4.6-7.1-18.7-14.2-29.2-12.4l-0.1-0.6c10.8-1.8,25.2,5.4,29.9,12.7L390.8,135.7z"/>
	<path fill="#3667B1" d="M400.2,109.2c-0.3,0-0.6-0.1-0.8-0.3c-0.3-0.3-0.4-0.7-0.3-1.2c0.1-0.4,0.4-0.9,0.8-1.3
		c0.8-0.9,1.9-1.1,2.5-0.6c0.6,0.5,0.3,1.6-0.5,2.5h0C401.4,108.9,400.8,109.2,400.2,109.2z M401.7,106.2c-0.3,0-0.8,0.2-1.2,0.6
		c-0.3,0.3-0.5,0.7-0.6,1c-0.1,0.3,0,0.5,0.1,0.6c0.2,0.2,1,0.1,1.6-0.5l0,0c0.6-0.6,0.8-1.3,0.5-1.6
		C401.9,106.2,401.8,106.2,401.7,106.2z"/>
	<path fill="#F3F3F3" d="M145.4,233.3c-2.8,1.1-20.2,1.4-22.6-0.2c-2.3-1.6,0.6-3.2,1.9-2.4c0.8-6.7,8.4-6.4,8.6-2.7
		c3.3-9.9,12.3-1.3,9.4,3.5C146.2,229.8,147.5,232.5,145.4,233.3z"/>
	<path fill="#3667B1" d="M391.9,121.5c0,0-0.1,0-0.1,0c-0.8-0.2-0.6-3.3-0.6-3.3l0.7,0c0,0.6,0,1.7,0.1,2.3c0.8-1.3,3.1-4.1,5-5.3
		l0.4,0.5c-2,1.3-4.4,4.3-4.9,5.3C392.2,121.4,392,121.5,391.9,121.5z"/>
	<path fill="#4883C4" d="M183.9,246.2c0.6,17.9,52,5.5,76.6,6.9c24.2,1.4,24.1,4.4,64.4,4.4c22.6,0,38.7-7.6,37.7-12.1
		c-0.9-4.5-178.1-6.6-178.8-4.4C183.2,243,183.8,244.5,183.9,246.2z"/>
	<path fill="#3667B1" d="M396.1,127.5l-0.4-0.5c2.5-1.6,5.6-2.3,8.8-1.9l-0.1,0.6C401.4,125.4,398.5,126,396.1,127.5z"/>
	<path fill="#3667B1" d="M368.5,126l-0.4-0.5c2-1.5,4.5-1.5,6.2-1.4c-0.9-0.6-2.1-1.4-2.5-1.6l0.3-0.6c0.8,0.3,3,1.9,3.7,2.4l1,0.8
		l-1.3-0.2C373.2,124.6,370.5,124.5,368.5,126z"/>
	<path fill="#3667B1" d="M381,129.8l-0.2-0.6c0.9-0.2,2.6-0.6,3.6-0.4l-0.1,0.6C383.7,129.3,382.5,129.4,381,129.8z"/>
	<polygon fill="#85B4E1" points="167.7,234.2 172.6,249 370,249.7 373.4,236 	"/>
	<path fill="#3667B1" d="M471.1,184.3c-0.2,0-0.4,0-0.6,0l0-1.1c16.1,0.2,27.1-7.7,32.7-23.6c3.2-9.1,2.4-18.6-2.1-26.3
		c-4.5-7.5-12.3-12.6-22.1-14.2c-10.3-1.7-21,0.8-28.7,6.7c-5.6,4.3-8.9,9.8-9.6,16c-0.4,3.6,0.2,9.6,0.6,14.4
		c0.2,1.7,0.3,3.2,0.4,4.4l0,0.1l0,0.1c-1.3,4-0.4,9.8,4.6,13.1l-0.6,0.9c-5.4-3.6-6.4-9.9-5-14.3c-0.1-1.2-0.2-2.6-0.4-4.3
		c-0.4-4.9-1-10.9-0.6-14.6c0.7-6.4,4.2-12.3,10-16.8c7.9-6.1,19-8.6,29.6-6.9c10.1,1.7,18.2,6.9,22.8,14.7
		c4.7,7.9,5.5,17.8,2.2,27.2C498.5,176.1,487.4,184.3,471.1,184.3z"/>
	<path fill="#3667B1" d="M472.1,254.4l-1-0.4c0.9-2.5,1.3-28.7,1.2-31.4l1.1,0C473.4,223.7,473.2,251.5,472.1,254.4z"/>
	<path fill="#3667B1" d="M458.6,245.3l-1.1-0.2c0.2-0.9,0.5-2,0.8-3.3c1.3-4.8,3.4-12.9,3.7-21.6l1.1,0c-0.3,8.9-2.5,17-3.8,21.9
		C459.1,243.3,458.8,244.4,458.6,245.3z"/>
	<path fill="#3667B1" d="M486.9,247.1c-1.8-3.1-5-16.9-4.8-25.1l1.1,0c-0.1,8,2.9,21.5,4.7,24.5L486.9,247.1z"/>
	<path fill="#3667B1" d="M492.1,259.6c-6.6,0-16.7-2.5-20.8-5l0.6-0.9c4.4,2.6,16.5,5.4,22.4,4.7c4.5-0.6,6.4-1.8,6.6-2.7
		c0.1-0.3,0-0.6-0.4-0.8c-0.8-0.6-3-0.9-5.6,0.6l-0.5-0.9c2.9-1.7,5.6-1.5,6.8-0.6c0.7,0.5,0.9,1.2,0.7,2c-0.5,1.7-3.2,3-7.5,3.5
		C493.7,259.6,493,259.6,492.1,259.6z"/>
	<path fill="#3667B1" d="M451.3,201.9c-1.7,0-3.4-0.9-5-2.8c-2.9-3.3-5.4-14.1-2.7-21.6c1.5-4.4,4.6-7.1,8.9-7.8
		c5-0.9,9.6,0.5,12.8,4c2.5,2.7,3.7,6.1,3,8.8l-1.1-0.3c0.6-2.3-0.5-5.4-2.7-7.8c-1.7-1.8-5.5-4.7-11.8-3.6c-3.9,0.7-6.6,3.1-8,7.1
		c-2.6,7.4,0.1,17.7,2.5,20.5c1.5,1.8,3.1,2.5,4.7,2.3c1.8-0.2,3.7-1.9,5-4.5l1,0.5c-1.5,2.9-3.6,4.8-5.8,5.1
		C451.7,201.9,451.5,201.9,451.3,201.9z"/>
	<path fill="#3667B1" d="M480.6,183.2l-0.5-1c4.4-2.3,3.2-5,2.1-7.4c-0.6-1.3-1.2-2.5-0.4-3.4c3.4-3.9,4.6-13.4,1.1-18.8
		c-2.5-3.9-7-5-13-3.2c-9.7,2.9-16.3,3.1-20.8,0.6c-3.1-1.7-5.2-4.7-6.5-9.1c-0.5-1.7-0.9-2.3-1-2.5c-0.2,0.2-0.4,1-0.6,1.8
		l-1.1-0.2c0.1-1,0.5-2.8,1.6-2.9c0.9,0,1.5,0.9,2.2,3.4c1.2,4.1,3.1,6.9,6,8.4c4.3,2.3,10.6,2.1,20-0.7c8.2-2.5,12.3,0.7,14.3,3.7
		c3.7,5.8,2.5,15.9-1.2,20.2c-0.3,0.3,0.2,1.2,0.6,2.2C484.3,176.7,486,180.4,480.6,183.2z"/>
	<path fill="#3667B1" d="M427.3,241.1c-1.4,0-2.7-0.1-4.1-0.4c-5.8-1.3-9.8-5.1-11.2-10.9l1.1-0.3c1.8,7.2,7.2,9.4,10.4,10.1
		c6,1.3,13-0.7,16.2-4.8c1.3-1.6,3.4-4.8,2.7-7.8c-0.4-1.7-1.7-3.1-3.8-4.1l-0.1,0.1c-2.9,3.2-4.8,5.3-15,7.4l-0.2-1.1
		c9.9-2.1,11.6-4,14.4-7.1l0.6-0.7l0.4,0.2c2.7,1.3,4.3,3,4.8,5.1c0.8,3.4-1.5,6.9-3,8.7C437.7,239,432.5,241.1,427.3,241.1z"/>
	<path fill="#3667B1" d="M441.6,216.1l-1.1-0.2c1.2-5.4,4.9-11.6,7.9-15.6l0.9,0.7C446.3,204.8,442.8,210.9,441.6,216.1z"/>
	<path fill="#3667B1" d="M479.4,189.4c-0.5-2-3.5-4.4-5.3-5.2l0.5-1c2,0.9,5.3,3.6,6,5.9L479.4,189.4z"/>
	<path fill="#3667B1" d="M465,189.3l-0.3-1c3.8-1.1,5.2-2.7,5.2-3.8c0-0.6-0.4-1.1-1.2-1.4c-1.5-0.5-5-0.2-8.6,4.5l-0.9-0.7
		c3.5-4.5,7.4-5.7,9.8-4.9c1.2,0.4,1.9,1.4,1.9,2.5C470.9,186.4,468.7,188.2,465,189.3z"/>
	<path fill="#3667B1" d="M456.3,191.8c-2.7-0.7-6.7-2.8-9.2-6.6c-0.7-1-1.1-1.5-1.4-1.8c0,0.1,0,0.3,0,0.4l-1.1-0.2
		c0-0.1,0-0.2,0-0.3c0-0.5,0-1.2,0.6-1.3c0.6-0.2,1.2,0.2,2.8,2.6c3.2,4.6,8.1,6,8.6,6.1L456.3,191.8z"/>
	<path fill="#3667B1" d="M452.4,193.3C452.4,193.3,452.4,193.3,452.4,193.3c-2.3,0-4-2.3-4-5.1c0-0.5,0.1-1,0.2-1.4l1.1,0.2
		c-0.1,0.4-0.1,0.8-0.1,1.2c0,2.2,1.3,4,2.9,4c0.9,0,1.9-0.6,2.4-1.6l1,0.5C455,192.5,453.7,193.3,452.4,193.3z"/>
	<path fill="#3667B1" d="M453.9,198.9c-0.4,0-0.6-0.1-0.8-0.3c-0.3-0.2-0.7-0.8-0.4-1.9c0.2-0.7,0.6-1.5,1.2-2.3
		c0.6-0.7,1.3-1.4,1.9-1.7c1.1-0.6,1.7-0.3,2-0.1c1,0.8,0.4,2.7-0.8,4.2c-0.6,0.7-1.3,1.4-1.9,1.7
		C454.6,198.8,454.2,198.9,453.9,198.9z M457,193.5c-0.1,0-0.3,0-0.6,0.2c-0.5,0.3-1.1,0.8-1.6,1.4c-0.5,0.6-0.8,1.3-1,1.9
		c-0.1,0.5,0,0.7,0,0.8c0,0,0.3,0.1,0.8-0.2c0.5-0.3,1.1-0.8,1.6-1.4c1.1-1.4,1.2-2.5,1-2.6C457.1,193.5,457,193.5,457,193.5z"/>
	<path fill="#3667B1" d="M434,203.5l-0.9-0.7c1.8-2.3,8.2-7.7,10.3-9.4l0.5-0.4l0.7,0.9l-0.5,0.4C438.5,198.9,435.1,202,434,203.5z"
		/>
	<path fill="#FFD152" d="M454.6,190.3c0.4,6.6,3.5,25,5.4,30.2c0.2,0.6,0.8,1.1,1.4,1.2c5.8,1.1,20.8,0.7,25-0.5
		c0.5-0.1,0.9-0.4,1.1-0.9c2.4-4.4,7.5-20.7,9.6-28c0.3-1.2-0.5-2.3-1.7-2.4c-7.8-0.5-31.7-1.3-38.8-1.6
		C455.5,188.2,454.5,189.2,454.6,190.3z"/>
	<path fill="#F8C237" d="M464.3,211.8c-3.1,0.4-5.3,3.8-3.5,8.6c0.2,0.6,0.7,1,1.3,1.1c5.4,1.1,20.3,0.6,24.3-0.5
		c0.4-0.1,0.8-0.4,1-0.8c2.3-4,7-19.2,8.9-26c0.3-1.1-0.5-2.1-1.6-2.2c-7.3-0.5-9.2,21.2-18.7,22.9
		C469.4,216.1,469.2,211.2,464.3,211.8z"/>
	<path fill="#3667B1" d="M492.8,217.3c-6.9,0-14-4.4-14.5-9.1c-0.3-3,1.6-8.4,18.1-11.1l0.1,0l0.1,0c3.9,0.9,6,3.8,5.7,8
		c-0.3,5.7-4.7,11.7-8.8,12.2l0,0C493.3,217.3,493.1,217.3,492.8,217.3z M496.5,198.3c-11.3,1.8-17.5,5.4-17,9.8
		c0.5,4.4,7.4,8.4,14,8.1c3.6-0.4,7.5-6.1,7.8-11.2C501.4,203,500.9,199.3,496.5,198.3z"/>
	<path fill="#3667B1" d="M439.9,209.1c-0.3,0-0.7-0.1-1-0.3c-0.6-0.4-0.9-1.3-0.8-2.4c0.1-1,0.6-2.1,1.3-3.1c0.7-1,1.5-1.9,2.4-2.4
		c1-0.6,1.9-0.7,2.5-0.2c0.6,0.4,0.9,1.3,0.8,2.4c-0.1,1-0.6,2.1-1.3,3.1l0,0C442.6,208.1,441.1,209.1,439.9,209.1z M443.4,201.6
		c-0.3,0-0.6,0.1-1,0.3c-0.7,0.4-1.4,1.1-2,2c-0.6,0.9-1,1.8-1.1,2.6c-0.1,0.6,0,1.1,0.3,1.3c0.5,0.3,2-0.3,3.3-2.3l0,0
		c0.6-0.9,1-1.8,1.1-2.6c0.1-0.6,0-1.1-0.3-1.3C443.6,201.6,443.5,201.6,443.4,201.6z"/>
	<path fill="#85B4E1" d="M401.7,215.4c-0.9,2.8,6.1,11.9,9.2,13.8c2.2,1.4,22,2.6,30.8-10.4c0.3-5.3,0.3-10.1-1.7-12.6
		C435.1,199.9,407,198.8,401.7,215.4z"/>
	<path opacity="0.46" fill="#CBE0F4" d="M401.7,215.4c4-14,29.8-17.5,38.3-9.2c3.1,4.6-4.1,11.6-14.3,14
		C415,222.6,401.7,220.9,401.7,215.4z"/>
	<path fill="#FEF5B2" d="M437.4,209.6c-5.4,9.9-25.2,10.5-30.9,8.5c-4-1.5-0.4-6.5,1.7-5.6c-2.5-11.7,7.5-11.5,9.8-5.4
		c3.6-14.9,18.7-7.5,15.9-0.2C438,204.5,438.9,206.7,437.4,209.6z"/>
	<path fill="#3667B1" d="M452.5,170.2c-0.6,0-1.3-0.2-2-0.5l0,0c-1.6-0.8-2.1-2.3-1.7-3.2c0.5-1,2.2-1.3,3.8-0.5
		c1.6,0.8,2.4,2,1.9,3.1c-0.2,0.4-0.5,0.8-1.1,1C453.1,170.1,452.8,170.2,452.5,170.2z M450.8,166.6c-0.5,0-0.9,0.2-1,0.3
		c-0.2,0.4,0.1,1.3,1.1,1.8h0c1.1,0.5,1.8,0.4,2.1,0.3c0.2-0.1,0.4-0.2,0.4-0.4c0.2-0.5-0.4-1.3-1.4-1.8
		C451.6,166.7,451.1,166.6,450.8,166.6z"/>
	<path fill="#3667B1" d="M453.9,259.4c-2.2,0-6.1-0.4-7.7-1.9c-0.5-0.4-0.7-1-0.7-1.5c0-0.9,0.4-1.6,1.2-2c1.7-0.9,5.1,0,7,1.3
		l-0.6,0.9c-1.6-1.1-4.5-1.9-5.8-1.2c-0.4,0.2-0.6,0.5-0.6,1c0,0.3,0.1,0.5,0.3,0.7c1.1,1.1,4.7,1.7,7.4,1.6
		c6.8-0.2,16.2-4.1,17-4.6l0.6,1c-1.2,0.7-10.7,4.5-17.5,4.7C454.2,259.4,454.1,259.4,453.9,259.4z"/>
	<path fill="#3667B1" d="M449.2,254.4l-1-0.5c2.9-6.3,6.9-8.6,9.8-9.4c3.9-1.1,7.1,0,7.8,0.5l-0.6,0.9c-0.5-0.3-3.4-1.3-6.9-0.3
		C454.4,246.7,451.3,249.7,449.2,254.4z"/>
	<path fill="#3667B1" d="M497.3,254c-1-3.2-3.7-4.8-5.7-5.6c-4.2-1.6-9.1-1.2-11.4,0.2l-0.6-1c2.5-1.4,7.7-2,12.4-0.2
		c3.2,1.3,5.4,3.4,6.4,6.3L497.3,254z"/>
	<path fill="#3667B1" d="M440.2,138.6c-2.2-4.1-3.7-12.5-3.1-15.9c0.1-0.7,0.7-1.3,1.6-1.7c3.4-1.6,12.3-0.4,15.5,1.5l-0.6,1
		c-2.9-1.7-11.4-2.8-14.4-1.4c-0.6,0.3-0.9,0.6-0.9,0.9c-0.5,3.1,0.9,11.3,3,15.1L440.2,138.6z"/>
	<path fill="#3667B1" d="M493.8,150.8l-0.9-0.7c5-7.1,2.7-14.1,1.2-15.9c-2.8-1-9.8-2.5-16.5,3.4l-0.8-0.8
		c7.2-6.5,14.8-4.7,17.7-3.6l0.1,0l0.1,0.1C496.5,135.3,499.4,142.9,493.8,150.8z"/>
	<path fill="#3667B1" d="M444.4,130.8c-1.3-2.2-2.8-3.7-5.3-5.8l0.7-0.8c2.6,2.3,4.2,3.8,5.6,6.1L444.4,130.8z"/>
	<path fill="#3667B1" d="M491.2,149.4l-1.1-0.2c0.9-5.2,0.1-9.2-2.4-11.9c-0.1-0.1-0.4-0.4-1.6-0.4c-2.5,0-6.4,1.4-8.4,3.6l-0.8-0.7
		c2.2-2.5,6.4-4,9.2-4c1.2,0,1.9,0.2,2.4,0.7C491.2,139.6,492.1,143.9,491.2,149.4z"/>
	<path fill="#3667B1" d="M440.7,162.1c-0.1,0-0.3,0-0.4-0.1c-4.3-3.8-8.1-5.7-8.2-5.7c-0.3-0.1-0.4-0.5-0.3-0.7
		c0.1-0.3,0.4-0.4,0.7-0.3c0.2,0.1,4,1.9,8.4,5.9c0.2,0.2,0.2,0.5,0,0.8C441,162.1,440.8,162.1,440.7,162.1z"/>
	<path fill="#3667B1" d="M440.4,164.7c0,0-0.1,0-0.1,0c-3.4-0.9-8.4-2.3-8.4-2.3l0.3-1c0,0,5,1.3,8.4,2.3c0.3,0.1,0.5,0.4,0.4,0.7
		C440.9,164.5,440.7,164.7,440.4,164.7z"/>
	<path fill="#3667B1" d="M502.8,177.9c-0.1,0-7.7-3.3-16.5-2.5l-0.1-1.1c9.1-0.8,16.7,2.5,17.1,2.6L502.8,177.9z"/>
	<path fill="#3667B1" d="M498.1,182.3c-2.6-1.6-8.5-3.6-12.3-3.9l0.1-1.1c4,0.3,10.1,2.4,12.8,4.1L498.1,182.3z"/>
	<path fill="#3667B1" d="M503,177.9c-0.1,0-0.1,0-0.2,0c0,0-3.5-1.5-8.3-2.2c-0.3,0-0.5-0.3-0.5-0.6s0.3-0.5,0.6-0.5
		c5,0.8,8.4,2.2,8.6,2.3c0.3,0.1,0.4,0.5,0.3,0.7C503.5,177.8,503.3,177.9,503,177.9z"/>
	<path fill="#3667B1" d="M498.4,182.4c-0.1,0-0.2,0-0.3-0.1c-1.4-0.8-3.5-1.7-5.8-2.5c-0.3-0.1-0.5-0.4-0.4-0.7
		c0.1-0.3,0.4-0.5,0.7-0.4c2.4,0.8,4.7,1.7,6.1,2.6c0.3,0.2,0.3,0.5,0.2,0.8C498.7,182.3,498.6,182.4,498.4,182.4z"/>
	<path fill="#F8C237" d="M412.5,212.3c4.9,0,6.1,1.3,6.8,2.2c0.4-2.4,5.1-2.5,6.4-2.2c-0.9-0.9-1.3-1.8,1.4-3.2
		c-4.5,1.5-4-0.2-4.3-1.3c-0.5,0.7-2.4,2.4-4,1.8C418.9,211.4,416.5,211.8,412.5,212.3z"/>
	<path fill="#F8C237" d="M394.7,262.1c-0.9,1.6-3.5,0.7-6,0.7c-2.1,0-0.5-0.2-0.5-1.5c0-0.7,0.5-1.6,2.5-1.2
		C392.4,257.2,395.2,261.2,394.7,262.1z"/>
	<path fill="#F8C237" d="M400.3,262c-1.9,0.6-4.2-0.5-3.2-1.2C398.2,260.1,402.3,261.4,400.3,262z"/>
	
		<rect x="212" y="225.3" transform="matrix(0.3345 -0.9424 0.9424 0.3345 -69.2734 353.5692)" fill="#3667B1" width="7.4" height="1.1"/>
	
		<rect x="189.3" y="220" transform="matrix(0.317 -0.9484 0.9484 0.317 -74.6688 337.485)" fill="#3667B1" width="15.4" height="1.1"/>
	<path fill="#FDDD6C" d="M495.4,189.9c-3.7-0.2-37.1-1.5-38.4-1.6c-1.1,0-2.7,0.1-2.3,3c0.3,2.4,1.1,8.7,1.8,12.8
		c-0.2-1.8,0.2-4.2,0-6.7c-0.2-2.4-0.4-4.4-0.5-5.7c-0.1-1.1-0.6-2.2,1.8-2.2c2.5,0,28.9,0.9,30.7,1
		C490.2,190.7,493.6,190,495.4,189.9z"/>
	<path fill="#D1D5DA" d="M133.2,228.9c1.8-9.9,5.7-10.5,14.5-14.6C146,223.3,137.6,229,133.2,228.9z"/>
	<path fill="#D1D5DA" d="M124.7,198.4c13.5,16.8,9.6,28.9,8.5,30.5C129.6,226.3,121.8,218.4,124.7,198.4z"/>
	<path fill="#B2BBC4" d="M127.3,208.2c-0.7,0-1.3-0.4-1.5-1.1c-0.2-0.4-0.2-0.9,0-1.3c0.2-0.4,0.5-0.7,0.9-0.9
		c0.8-0.3,1.8,0.1,2.1,1c0.3,0.9,0,1.8-0.9,2.2C127.6,208.2,127.5,208.2,127.3,208.2z M127.1,205.4c-0.1,0-0.2,0-0.4,0.1
		c-0.3,0.1-0.5,0.3-0.6,0.6c-0.1,0.3-0.1,0.6,0,0.9c0.2,0.6,0.9,0.9,1.4,0.7c0.5-0.2,0.8-0.9,0.6-1.4
		C128,205.7,127.6,205.4,127.1,205.4z"/>
	<path fill="#B2BBC4" d="M133.6,227.6c-1.5-2.3-3.6-9.9-5-15c-0.6-2.2-1.1-4.2-1.3-4.5l0.5-0.3c0.2,0.4,0.6,1.8,1.4,4.6
		c1.4,5,3.4,12.6,4.9,14.8L133.6,227.6z"/>
	<path fill="#B2BBC4" d="M131.9,222.9l-0.3-0.3c-0.8-0.8-2.4-2.1-3.2-2.4l0.2-0.5c0.8,0.3,2.2,1.4,3.1,2.2c0.3-1,0.8-2.7,0.6-3.7
		l0.5-0.1c0.2,1.2-0.4,3.3-0.8,4.3L131.9,222.9z"/>
	<path fill="#B2BBC4" d="M134.1,227.5l-0.5-0.2c0.5-1.4,3-6.2,11.6-10.7l0.3,0.5C136.7,221.6,134.4,226.5,134.1,227.5z"/>
	<path fill="#B2BBC4" d="M138.5,221.7l-0.2-0.5c0.8-0.3,2.8-0.3,3.6-0.2l-0.1,0.5C141.1,221.4,139.2,221.4,138.5,221.7z"/>
	<path fill="#B2BBC4" d="M137.4,222.4l-0.3-0.1c0.1-0.7,0.4-1.7,1.1-2.4l0.4,0.4c-0.6,0.6-0.8,1.5-0.9,2.1L137.4,222.4z"/>
	<path fill="#B2BBC4" d="M129,213.9c-0.4-0.5-1.1-1.6-1.5-1.9l0.3-0.5c0.5,0.3,1.1,1.2,1.7,2L129,213.9z"/>
	<path fill="#F8C237" d="M408.1,218.5c4.2,1.2,22.4,1.2,28.7-7.9c-1.8,0.6-3.3,3.9-7.7,3.9c-0.8,1.4-6.5,4.6-12.7,3.2
		C415.2,218.6,414.4,218.7,408.1,218.5z"/>
	<ellipse fill="#F8C237" cx="294.5" cy="214.4" rx="0.7" ry="0.5"/>
	<ellipse fill="#F8C237" cx="291.2" cy="213.8" rx="0.4" ry="0.4"/>
	<circle fill="#F8C237" cx="296.3" cy="212" r="0.3"/>
	<circle fill="#F8C237" cx="289" cy="213.1" r="0.2"/>
	<circle fill="#F8C237" cx="296.1" cy="214.2" r="0.2"/>
	<ellipse fill="#F8C237" cx="295.3" cy="212.5" rx="0.4" ry="0.2"/>
	
		<ellipse transform="matrix(0.9993 -3.699369e-02 3.699369e-02 0.9993 -7.2711 15.9506)" fill="#F8C237" cx="427.4" cy="204.5" rx="0.4" ry="0.4"/>
	
		<ellipse transform="matrix(0.9993 -3.699369e-02 3.699369e-02 0.9993 -7.3467 15.7642)" fill="#F8C237" cx="422.3" cy="206.4" rx="0.3" ry="0.3"/>
	
		<ellipse transform="matrix(0.9993 -3.699369e-02 3.699369e-02 0.9993 -7.2671 15.7693)" fill="#F8C237" cx="422.5" cy="204.3" rx="0.2" ry="0.2"/>
	
		<ellipse transform="matrix(0.9993 -3.699369e-02 3.699369e-02 0.9993 -7.3255 15.8037)" fill="#F8C237" cx="423.4" cy="205.9" rx="0.4" ry="0.2"/>
	
		<ellipse transform="matrix(0.9993 -3.699369e-02 3.699369e-02 0.9993 -7.4004 15.4712)" fill="#F8C237" cx="414.4" cy="207.7" rx="0.4" ry="0.4"/>
	
		<ellipse transform="matrix(0.9993 -3.699369e-02 3.699369e-02 0.9993 -7.3731 15.4233)" fill="#F8C237" cx="413.1" cy="206.9" rx="0.3" ry="0.3"/>
	
		<ellipse transform="matrix(0.9993 -3.699369e-02 3.699369e-02 0.9993 -7.6328 15.4681)" fill="#F8C237" cx="414.2" cy="214" rx="0.4" ry="0.2"/>
	
		<ellipse transform="matrix(0.9993 -3.699369e-02 3.699369e-02 0.9993 -7.4622 16.007)" fill="#F8C237" cx="428.8" cy="209.7" rx="0.4" ry="0.2"/>
	
		<ellipse transform="matrix(0.9993 -3.699369e-02 3.699369e-02 0.9993 -7.4425 16.0536)" fill="#F8C237" cx="430.1" cy="209.1" rx="0.2" ry="0.2"/>
	
		<ellipse transform="matrix(0.9993 -3.699369e-02 3.699369e-02 0.9993 -7.4132 15.4241)" fill="#F8C237" cx="413.1" cy="208" rx="0.2" ry="0.2"/>
	<path fill="#FFD33E" d="M390.6,260.1c1-1.6,2.5-1.3,3.4,0.2c1,1.5-1.3-0.9-3.7,0.4c-1.2-0.4-2.2,0.3-2.2,0.6
		C388,260.3,389.4,259.7,390.6,260.1z"/>
	<path fill="#FFD33E" d="M397,261.1c0.6-0.7,2.2-0.5,3.4,0.2C399.4,261,398.6,260.6,397,261.1z"/>
	<path fill="#FBF9D4" d="M456.8,189.6c11.2,0.2,34.5,0.8,37.8,0.6c3.2-0.2-37.9-2.7-38.8-1.8C454.8,189.3,456.8,189.6,456.8,189.6z"
		/>
	
		<rect x="308.6" y="112.8" transform="matrix(-0.9137 -0.4065 0.4065 -0.9137 550.1181 351.7499)" fill="#F6F8FA" width="7.7" height="9.2"/>
</g>
</svg>
